<svg width="44" height="44" fill="none" xmlns="http://www.w3.org/2000/svg"><path d="M43.86 31.354L41.27 19.69a6.38 6.38 0 00-6.265-5.024h-.36c-.41-1.407-1.713-4.316-5.604-6.027l.252-1.001a.917.917 0 00-.583-1.089C26.742 5.854 24.484 5.5 22 5.5c-2.487 0-4.749.354-6.724 1.055a.917.917 0 00-.582 1.092l.257.996c-3.884 1.712-5.185 4.618-5.595 6.024h-.36A6.38 6.38 0 002.73 19.69L.141 31.353A5.793 5.793 0 000 32.628 5.88 5.88 0 005.872 38.5h32.255a5.88 5.88 0 005.733-7.146zM7.333 36.667h-1.46A4.044 4.044 0 011.93 31.75l2.592-11.66a4.547 4.547 0 012.811-3.273v19.85zM27.304 8.024l-.447 1.77c-1.42-.417-3.05-.627-4.857-.627-1.808 0-3.438.21-4.86.625l-.455-1.766c3.172-.92 7.455-.92 10.619-.002zM11 36.667H9.167V16.5H11v20.167zm20.167 0H12.833V16.5h18.334v20.167zm-19.867-22c.442-1.14 1.55-2.953 4.123-4.191l.187.727a.917.917 0 001.22.627c1.421-.55 3.16-.83 5.17-.83s3.749.28 5.172.833a.903.903 0 00.752-.039.92.92 0 00.468-.59l.185-.731c2.584 1.241 3.688 3.054 4.126 4.194H11.3zm23.533 22H33V16.5h1.833v20.167zm3.295 0h-1.461v-19.85a4.547 4.547 0 012.811 3.272l2.593 11.663a4.044 4.044 0 01-3.943 4.915z" fill="#fff" fill-opacity=".15"/><path d="M18.333 33.002h7.334a3.67 3.67 0 003.666-3.667v-4.583a.916.916 0 00-.916-.917H15.583a.916.916 0 00-.916.917v4.583a3.67 3.67 0 003.666 3.667zM16.5 25.668h11v3.667c0 1.01-.823 1.833-1.833 1.833h-7.334a1.836 1.836 0 01-1.833-1.833v-3.667z" fill="#fff" fill-opacity=".15"/></svg>