<svg width="44" height="28" fill="none" xmlns="http://www.w3.org/2000/svg"><path d="M16.532 24.434l2.518-4.578a2.646 2.646 0 00-.625-3.304c-1.718-1.434-3.503-1.992-6.365-1.992-1.41 0-2.887.097-4.39.288-2.022.257-3.24 2.354-2.48 4.245l1.873 4.727a2.359 2.359 0 002.204 1.499h5.773a1.7 1.7 0 001.492-.884zm-8.27-1.088L6.4 18.647l-.013-.032a1.813 1.813 0 011.446-2.488 33.633 33.633 0 014.226-.278c2.592 0 4.041.443 5.539 1.693.498.414.633 1.126.321 1.693l-2.518 4.58a.413.413 0 01-.362.214H9.267c-.446 0-.841-.268-1.006-.683zm20.698 1.973h5.773c.979 0 1.844-.588 2.205-1.499l1.86-4.697.01-.027c.764-1.898-.458-3.99-2.479-4.248a34.94 34.94 0 00-4.389-.288c-2.862 0-4.647.558-6.365 1.992a2.647 2.647 0 00-.625 3.304l2.517 4.577c.299.546.871.886 1.494.886zm-2.56-7.777h.001c1.498-1.25 2.948-1.693 5.54-1.693 1.355 0 2.777.093 4.226.278a1.813 1.813 0 011.446 2.487l-1.874 4.732c-.164.415-.56.683-1.006.683H28.96a.414.414 0 01-.364-.216l-2.517-4.578a1.355 1.355 0 01.32-1.693z" fill="#fff" fill-opacity=".15"/><path d="M42.74 13.459a32.831 32.831 0 00-.575-.16L38.86 8.556a.645.645 0 00-1.058.737l2.474 3.551a42.805 42.805 0 00-2.585-.477L33.486 5.07a3.546 3.546 0 00-4.123-1.599 1.101 1.101 0 11-.334-2.15 6.17 6.17 0 015.06 2.642l1.994 2.86a.645.645 0 001.058-.736l-1.993-2.861A7.46 7.46 0 0029.029.03a2.39 2.39 0 10.725 4.668 2.25 2.25 0 012.615 1.014l3.712 6.441a36.993 36.993 0 00-4.14-.241c-3.508 0-5.843.755-8.062 2.607-1.124.938-2.634.938-3.758 0-2.219-1.852-4.554-2.607-8.061-2.607-1.453 0-2.85.095-4.141.241l3.712-6.44a2.25 2.25 0 012.615-1.015A2.39 2.39 0 1014.97.031a7.461 7.461 0 00-6.119 3.195L1.835 13.3c-.217.058-.41.112-.575.159A1.751 1.751 0 000 15.135v1.632c0 1.093.846 1.509 1.207 1.686A3.083 3.083 0 012.742 20.1l1.86 4.696a4.992 4.992 0 004.665 3.17h1.4a.644.644 0 100-1.288h-1.4A3.71 3.71 0 015.8 24.32l-1.86-4.695a4.372 4.372 0 00-2.164-2.329c-.365-.18-.487-.28-.487-.529v-1.632c0-.202.135-.382.328-.437 1.562-.45 5.707-1.496 10.443-1.496 3.216 0 5.245.647 7.235 2.308 1.593 1.33 3.817 1.33 5.41 0 1.99-1.661 4.019-2.308 7.235-2.308 3.995 0 7.57.744 9.528 1.247l.005.002c.361.092.667.177.91.247a.457.457 0 01.328.437v1.632c0 .312-.218.39-.58.576a4.372 4.372 0 00-2.072 2.282l-1.86 4.695a3.71 3.71 0 01-3.467 2.357H28.96a3.059 3.059 0 01-2.684-1.592l-2.231-4.078a2.299 2.299 0 00-2.044-1.21 2.3 2.3 0 00-2.047 1.21l-2.23 4.078a3.059 3.059 0 01-2.685 1.591h-1.365a.644.644 0 100 1.29h1.365c1.59 0 3.053-.867 3.816-2.262l2.23-4.078c.186-.339.528-.54.915-.54s.729.201.914.54l2.23 4.078a4.348 4.348 0 003.816 2.262h5.772a4.992 4.992 0 004.666-3.171l1.86-4.696c.277-.7.799-1.285 1.534-1.646.362-.177 1.208-.593 1.208-1.686v-1.632a1.75 1.75 0 00-1.26-1.676zM9.91 3.963a6.171 6.171 0 015.06-2.643 1.101 1.101 0 11-.333 2.151 3.546 3.546 0 00-4.123 1.599l-4.205 7.296c-.96.147-1.834.315-2.585.477l6.186-8.88z" fill="#fff" fill-opacity=".15"/></svg>