<svg width="44" height="44" fill="none" xmlns="http://www.w3.org/2000/svg"><path d="M26.856 3.929h-1.713a.786.786 0 010-1.572h1.398L26.07 0h-8.14l-.471 2.357H22a.786.786 0 110 1.572h-4.856l-.471 2.357h10.654l-.471-2.357zM22 33c6.075 0 11-4.925 11-11s-4.925-11-11-11-11 4.925-11 11c.007 6.072 4.928 10.993 11 11zm.786-2.357a.786.786 0 11-1.572 0V29.07a.786.786 0 111.572 0v1.572zm7.095-3.638a.785.785 0 01-.79-.003l-1.36-.786a.786.786 0 01.786-1.36l1.36.785a.786.786 0 01.004 1.364zM31.428 22a.786.786 0 01-.785.786H29.07a.786.786 0 110-1.572h1.572c.434 0 .785.352.785.786zm-3.697-4.216l1.36-.786a.786.786 0 11.787 1.36l-1.361.787a.786.786 0 11-.786-1.361zm-2.876-2.3l.786-1.361a.786.786 0 111.36.785l-.785 1.361a.786.786 0 01-1.36-.786zm.288 11.96a.786.786 0 011.073.287l.786 1.36a.786.786 0 11-1.361.787l-.786-1.361a.786.786 0 01.288-1.073zm-3.929-14.087a.786.786 0 111.572 0v1.572a.786.786 0 11-1.572 0v-1.572zm.712 7.606l1.09-1.09a.786.786 0 011.111 1.111l-1.572 1.571a.786.786 0 01-1.026.073l-3.143-2.357a.786.786 0 01.942-1.257l2.598 1.949zM16.92 14.31a.786.786 0 011.44-.188l.786 1.36a.786.786 0 11-1.361.786l-.786-1.36a.786.786 0 01-.079-.598zM17 29.09l.785-1.36a.786.786 0 011.36.786l-.785 1.36a.786.786 0 11-1.36-.785zm-3.165-11.805a.787.787 0 011.074-.288l1.36.786a.786.786 0 11-.785 1.36l-1.36-.785a.786.786 0 01-.289-1.073zM12.572 22c0-.434.351-.786.785-.786h1.572a.786.786 0 110 1.572h-1.572a.786.786 0 01-.785-.786zm1.262 4.714a.786.786 0 01.289-1.073l1.36-.786a.786.786 0 11.786 1.361l-1.36.786a.786.786 0 01-1.075-.288z" fill="#fff" fill-opacity=".15"/><path d="M30.127 12.425l-.914-4.568H14.787l-.914 4.568a12.517 12.517 0 0116.254 0zm-16.254 19.15l.914 4.568h14.426l.914-4.568a12.517 12.517 0 01-16.254 0zm3.271 8.496h1.713a.786.786 0 010 1.572H17.46L17.93 44h8.14l.471-2.357H22a.786.786 0 110-1.572h4.856l.471-2.357H16.673l.471 2.357z" fill="#fff" fill-opacity=".15"/></svg>