<svg width="55" height="55" fill="none" xmlns="http://www.w3.org/2000/svg"><path fill-rule="evenodd" clip-rule="evenodd" d="M25.156 16.495c-7.671 1.105-13.627 7.552-13.969 15.444a2.571 2.571 0 00-1.734 2.436v5.156c0 .684.272 1.34.755 1.824.484.483 1.14.754 1.823.754H42.97a2.58 2.58 0 002.578-2.578v-5.156a2.571 2.571 0 00-1.734-2.436c-.342-7.892-6.298-14.339-13.969-15.444a2.26 2.26 0 00.234-1.026 2.58 2.58 0 00-5.156 0c0 .383.084.729.234 1.026zm18.672 17.88v5.156a.866.866 0 01-.25.609.866.866 0 01-.61.25H12.032a.866.866 0 01-.608-.25.866.866 0 01-.251-.609v-5.156c0-.229.091-.447.25-.608a.866.866 0 01.61-.251H42.97c.228 0 .447.09.608.25.16.162.251.38.251.609zm-1.744-2.578c-.446-7.664-6.81-13.75-14.584-13.75s-14.138 6.086-14.584 13.75h29.168zM27.5 14.609a.86.86 0 110 1.72.86.86 0 010-1.72z" fill="#434A4E"/></svg>