<svg width="40" height="48" fill="none" xmlns="http://www.w3.org/2000/svg"><path d="M20 48C8.785 48 0 36.141 0 21 0 9.028 8.598 0 20 0s20 9.028 20 21c0 15.141-8.785 27-20 27zm0-46C9.738 2 2 10.168 2 21c0 14.02 7.907 25 18 25s18-10.98 18-25c0-10.832-7.738-19-18-19z" fill="#43494E"/><path d="M12 25c-2.757 0-5-2.243-5-5s2.243-5 5-5 5 2.243 5 5-2.243 5-5 5zm0-8c-1.654 0-3 1.346-3 3s1.346 3 3 3 3-1.346 3-3-1.346-3-3-3zm16 8c-2.757 0-5-2.243-5-5s2.243-5 5-5 5 2.243 5 5-2.243 5-5 5zm0-8c-1.654 0-3 1.346-3 3s1.346 3 3 3 3-1.346 3-3-1.346-3-3-3zm-5 12a1 1 0 01-1-1c0-.408-.779-1-2-1s-2 .592-2 1a1 1 0 01-2 0c0-1.682 1.757-3 4-3 2.243 0 4 1.318 4 3a1 1 0 01-1 1z" fill="#43494E"/><path d="M20 31c-.26 0-.52-.109-.71-.29-.18-.19-.29-.45-.29-.71 0-.26.11-.52.29-.71.37-.37 1.05-.37 1.42 0 .181.19.29.45.29.71 0 .26-.109.52-.29.71-.19.181-.45.29-.71.29zm-2-18c-.26 0-.52-.11-.71-.29-.18-.19-.29-.45-.29-.71 0-.27.11-.52.29-.71.37-.36 1.05-.37 1.42 0 .18.19.29.45.29.71 0 .26-.11.52-.29.71-.19.18-.45.29-.71.29zm-4 0c-.26 0-.52-.11-.71-.29-.18-.19-.29-.45-.29-.71 0-.26.11-.52.29-.71.37-.37 1.04-.37 1.42 0 .18.19.29.45.29.71 0 .26-.1.52-.29.71-.19.18-.45.29-.71.29zm0-4c-.26 0-.52-.11-.71-.29-.18-.19-.29-.45-.29-.71 0-.26.11-.52.29-.71.37-.37 1.04-.37 1.42 0 .19.19.29.45.29.71 0 .26-.1.52-.29.71-.19.18-.45.29-.71.29zm8 4c-.27 0-.52-.11-.71-.29-.181-.19-.29-.45-.29-.71 0-.26.109-.52.29-.71.37-.37 1.05-.37 1.42 0 .181.19.29.45.29.71 0 .26-.109.52-.29.71-.19.18-.44.29-.71.29zm4 0c-.26 0-.52-.11-.71-.29-.181-.19-.29-.45-.29-.71 0-.26.109-.52.29-.71.38-.37 1.05-.37 1.42 0 .181.19.29.45.29.71 0 .26-.109.52-.29.71-.19.18-.45.29-.71.29zm0-4c-.26 0-.52-.11-.71-.29-.181-.19-.29-.45-.29-.71 0-.26.109-.52.29-.71.38-.37 1.04-.37 1.42 0 .181.19.29.45.29.71 0 .26-.109.52-.29.71-.19.18-.45.29-.71.29zM16 35c-.26 0-.52-.109-.71-.29-.18-.19-.29-.45-.29-.71 0-.26.11-.52.29-.71.38-.37 1.05-.37 1.42 0 .18.19.29.45.29.71 0 .27-.11.52-.29.71-.19.181-.44.29-.71.29zm-4 2c-.26 0-.52-.109-.71-.29-.18-.19-.29-.45-.29-.71 0-.26.11-.52.29-.71.38-.37 1.05-.37 1.42 0 .18.19.29.45.29.71 0 .26-.11.52-.29.71-.19.181-.44.29-.71.29zm12-2c-.27 0-.52-.109-.71-.29-.181-.19-.29-.45-.29-.71 0-.27.109-.52.29-.71.37-.36 1.05-.37 1.42 0 .181.19.29.44.29.71 0 .26-.109.52-.29.71-.19.181-.44.29-.71.29zm4 2c-.26 0-.52-.109-.71-.29-.181-.19-.29-.45-.29-.71 0-.26.109-.52.29-.71.37-.37 1.04-.37 1.42 0 .181.19.29.45.29.71 0 .26-.109.52-.29.71-.19.181-.45.29-.71.29zm-12 2c-.26 0-.52-.109-.71-.29-.18-.19-.29-.45-.29-.71 0-.26.11-.52.29-.71.38-.37 1.05-.37 1.42 0 .18.19.29.45.29.71 0 .27-.11.52-.29.71-.19.181-.44.29-.71.29zm8 0c-.27 0-.52-.109-.71-.29-.181-.19-.29-.44-.29-.71 0-.27.109-.52.29-.71.36-.37 1.05-.37 1.42 0 .181.19.29.44.29.71 0 .27-.109.52-.29.71-.19.181-.44.29-.71.29zm-8 4c-.26 0-.52-.109-.71-.29-.18-.19-.29-.45-.29-.71 0-.26.11-.52.29-.71.38-.37 1.05-.37 1.42 0 .18.19.29.45.29.71 0 .27-.11.52-.29.71-.19.181-.44.29-.71.29zm8 0c-.27 0-.52-.109-.71-.29-.181-.19-.29-.44-.29-.71 0-.27.109-.52.29-.71.36-.37 1.05-.37 1.42 0 .181.19.29.44.29.71 0 .27-.109.52-.29.71-.19.181-.44.29-.71.29z" fill="#43494E"/></svg>