<svg width="42" height="40" fill="none" xmlns="http://www.w3.org/2000/svg"><path d="M40.724.142c-2.86-.154-5.709.602-8.238 2.186l-.837.525c-1.874 1.173-3.945 1.636-5.989 1.34l-.258-.041L27.104.494h-12.68l1.746 3.752-.216.013c-2.682.145-5.358-.566-7.736-2.055L7.38 1.68C5.466.48 3.357-.04 1.254.164a.43.43 0 10.09.855c1.91-.183 3.831.294 5.58 1.389l.837.524c2.315 1.45 4.897 2.206 7.511 2.206.242 0 .485-.007.727-.02l.562-.032.984 2.11h6.437l1.041-2.232.512.078c.442.064.888.097 1.334.097 1.805 0 3.592-.529 5.236-1.558l.838-.524C35.32 1.567 37.996.857 40.679 1a.43.43 0 10.046-.858zM17.629 8.055L15.22 21.24l10.435-3.547-1.758-9.64h-6.27zm1.081 4.94l-.993 6.107a.43.43 0 11-.848-.138l.993-6.107a.429.429 0 01.844-.03.433.433 0 01.005.168zm.35-2.146l-.06.364a.43.43 0 11-.848-.137l.06-.365a.428.428 0 01.775-.186.432.432 0 01.072.324zm-4.903 16.25l-.947 5.18 7.554 7.602 7.554-7.602-1.722-9.42-12.44 4.24zm.176-.968l12.106-4.125-.627-3.432-10.769 3.67-.71 3.887z" fill="#fff" fill-opacity=".15"/></svg>