<svg width="55" height="55" fill="none" xmlns="http://www.w3.org/2000/svg"><path d="M26.175 19.9a1.25 1.25 0 10.037 0h-.037zm.031 11.45a1.25 1.25 0 100-2.5h-.031a1.25 1.25 0 00-1.206 1.25 1.25 1.25 0 001.237 1.25zm-1.244-5.725a1.25 1.25 0 101.25-1.25h-.03a1.25 1.25 0 00-1.207 1.25h-.013z" fill="#434A4E"/><path d="M42.031 12.231a4.263 4.263 0 00-.506-1.5 3.856 3.856 0 00-2.337-1.781l-.113-.031-4.519-1.344a7.975 7.975 0 01-7.056 3.869 7.888 7.888 0 01-7.044-3.894c-2.456.7-4.031 1.162-4.731 1.375l-.319.1a3.56 3.56 0 00-1.812 1.469 4.17 4.17 0 00-.625 1.712L7.725 46.144a.625.625 0 00.581.731h.031c.52.044 5.082.35 7.244.487l1.082.07a.582.582 0 00.587-.52c.03-.416.054-.816.075-1.2l.113-2.5-1.188-.193-.206 3.125-6.95-.519c3.362-21.788 5.096-32.96 5.2-33.519l.031-.137a2.442 2.442 0 011.106-1.519 17.9 17.9 0 013.057-.869l.887-.206a19.265 19.265 0 001.144 3.494 8.125 8.125 0 002.237 2.744c.638.5 1.357.887 2.125 1.143a9.136 9.136 0 002.625.381h1.313V41.02l-13.356-.525 2.006-21.25h-1.175l-2.207 21.8a.625.625 0 00.67.7l14.574.587a.624.624 0 00.744-.725v-.525h10.131a.624.624 0 00.7-.762L39.125 22.5h-1.313l1.513 13.75h-9.244V16.875a.144.144 0 01.088-.044l.125-.037.244-.088a6.993 6.993 0 002.906-2.056c.5-.58.92-1.226 1.25-1.919.367-.92.66-1.87.875-2.837l.118-.475 2.244.562.919.238a2.501 2.501 0 011.844 1.875c.037.156.069.319.093.475l.07.487 5.068 32.657-7.563.48-.237-3.693-1.25-.038.25 4.375a.623.623 0 00.712.625l8.9-.587a.588.588 0 00.532-.45 1.01 1.01 0 000-.387L42.03 12.23zm-2.625 25.856l.163 1.694H30.08v-1.694h9.325zm-5.256-27.68a9.175 9.175 0 01-.837 2.162 6.364 6.364 0 01-1.876 2.206 5.95 5.95 0 01-2.443 1 7.607 7.607 0 01-2.713 0 6.024 6.024 0 01-2.5-1.044 6.367 6.367 0 01-1.512-1.525 8.637 8.637 0 01-1.356-3.081l.468.431a8.668 8.668 0 002.688 1.594c.925.331 1.893.525 2.875.575.798.043 1.598.001 2.387-.125a8.95 8.95 0 002.944-1.012 9.154 9.154 0 001.913-1.432l.087-.069-.125.32z" fill="#434A4E"/><path d="M38.219 19.256h-.094a.575.575 0 00-.506.625l.131 1.294H39l-.15-1.356a.625.625 0 00-.631-.563z" fill="#434A4E"/></svg>