<svg width="44" height="44" fill="none" xmlns="http://www.w3.org/2000/svg"><path d="M12.05 35.072H2.3v3.931h9.75v-3.931zm0-11.182H2.3v4.463h9.75v-4.462zM41.7 35.072h-9.75v3.931h9.75v-3.931z" fill="#fff" fill-opacity=".15"/><path d="M39.137 21.313v-1.488a4.305 4.305 0 01-3.675-4.253V0h-4.168v4.932c0 5.125-4.17 9.294-9.294 9.294-5.125 0-9.295-4.17-9.295-9.294V0H8.538v15.572c0 2.158-1.6 3.95-3.675 4.252v1.488h9.764v9.62H4.863v1.562h9.764v9.088H4.863V44h34.274v-2.418h-9.764v-9.088h9.764v-1.563h-9.764v-9.618h9.764z" fill="#fff" fill-opacity=".15"/><path d="M41.7 23.89h-9.75v4.463h9.75v-4.462z" fill="#fff" fill-opacity=".15"/></svg>