<svg width="44" height="32" fill="none" xmlns="http://www.w3.org/2000/svg"><path d="M15.104 20.091l2.743.917 1.302-1.302-.915-2.742a7.917 7.917 0 00-3.13 3.128zm13.788 0h.002a7.918 7.918 0 00-3.131-3.128l-.916 2.743 1.302 1.302 2.743-.917zm-5.512-.949l.934-2.794a7.847 7.847 0 00-4.628 0l.934 2.794h2.76zm-5.146-2.179h.001-.001zm-.948 5.514l-2.796-.934a7.844 7.844 0 000 4.627l2.796-.934v-2.76zm3.033 4.474h.014c.027.014.053.03.078.047h3.18a.713.713 0 01.078-.047h.014l1.414-1.413v-.015a.762.762 0 01.046-.078v-3.169a.738.738 0 01-.046-.087v-.015l-1.414-1.415h-.015a.742.742 0 01-.078-.046h-3.178a.738.738 0 01-.078.046h-.015l-1.415 1.415v.015a.724.724 0 01-.046.087v3.168a.713.713 0 01.046.078v.015l1.415 1.415zm-5.213.671a7.918 7.918 0 003.13 3.128l.915-2.742-1.302-1.302-2.743.916zM38.473 11.06C38.186 6.9 30.772 3.428 22 3.428c-8.772 0-16.186 3.471-16.473 7.632C8.362 7.885 14.693 5.785 22 5.785c7.307 0 13.638 2.1 16.473 5.275z" fill="#fff" fill-opacity=".15"/><path d="M22 .285C9.87.285 0 6.107 0 13.264c0 4.987 5.035 9.602 12.65 11.724a9.165 9.165 0 01.912-5.311c-5.969-1.616-9.633-4.768-9.633-8.373 0-5.297 7.935-9.447 18.071-9.447 10.136 0 18.072 4.15 18.072 9.447 0 3.605-3.665 6.76-9.633 8.373a9.165 9.165 0 01.915 5.311C38.965 22.866 44 18.251 44 13.264 44 6.107 34.13.285 22 .285z" fill="#fff" fill-opacity=".15"/><path d="M26.714 22.477v2.76l2.794.933a7.842 7.842 0 000-4.627l-2.794.934zm-1.865 5.531l.915 2.742a7.918 7.918 0 003.13-3.128l-2.743-.916-1.302 1.302zm-4.229.562l-.934 2.795a7.85 7.85 0 004.628 0l-.934-2.794h-2.76z" fill="#fff" fill-opacity=".15"/></svg>