<svg width="44" height="44" fill="none" xmlns="http://www.w3.org/2000/svg"><path d="M30.938 4.813H28.53c-.86 0-1.683.411-2.2 1.1a4.147 4.147 0 01-3.3 1.65h-2.06a4.147 4.147 0 01-3.3-1.65 2.765 2.765 0 00-2.2-1.1h-2.406a.688.688 0 00-.688.687v33c0 .38.309.688.688.688h17.874a.688.688 0 00.688-.688v-33a.688.688 0 00-.688-.688z" fill="#fff" fill-opacity=".15"/><path d="M30.938 2.063H13.063A3.441 3.441 0 009.624 5.5v33a3.441 3.441 0 003.438 3.438h17.874a3.441 3.441 0 003.438-3.438v-33a3.441 3.441 0 00-3.438-3.438zM19.25 3.437h5.5v1.376h-5.5V3.438zM33 38.5a2.065 2.065 0 01-2.063 2.063H13.063A2.065 2.065 0 0111 38.5v-33c0-1.137.925-2.063 2.063-2.063h2.406c1.29 0 2.524.617 3.3 1.65a2.763 2.763 0 002.2 1.1h2.062c.861 0 1.683-.411 2.2-1.1a4.147 4.147 0 013.3-1.65h2.407A2.066 2.066 0 0133 5.5v33z" fill="#fff" fill-opacity=".15"/></svg>