<svg width="44" height="44" fill="none" xmlns="http://www.w3.org/2000/svg"><g clip-path="url(#clip0_3_1239)" fill="#fff" fill-opacity=".25"><path d="M5.553 40.388a10.177 10.177 0 01-4.879-1.685A4.871 4.871 0 000 40.769c0 1.983 1.72 2.573 2.75 2.75 2.524.431 5.934-.763 6.727-3.01.043-.12.098-.25.147-.376-.87.226-1.766.337-2.666.33-.47 0-.938-.026-1.405-.075zm-2.23-5.575c-.01.01-.016.023-.026.033a34.932 34.932 0 00-1.816 2.497 8.344 8.344 0 004.233 1.481c2.486.256 4.3-.294 4.978-.927A33.966 33.966 0 0121.48 26.716l-5.038-5.624a138.08 138.08 0 00-13.12 13.721zm3.748 1.72a.786.786 0 110-1.571.786.786 0 010 1.571zM17.286 26.32a.786.786 0 11-1.572 0 .786.786 0 011.572 0zm13.387-9.786a24.662 24.662 0 009.713-14.119 136.93 136.93 0 00-19.184 14.571l3.51 3.918 5.961-4.37z"/><path d="M42.543 1.069l-.322.198c-.537 3.261-2.613 10.667-10.619 16.534l-5.837 4.277 1.056 1.178c1.502-1.1 3.379-2.47 5.714-4.188 7.019-5.146 10.282-11.927 11.19-17.207a.786.786 0 00-1.182-.792zM19.947 17.94a.785.785 0 00-1.11-.062l-1.17 1.049a.786.786 0 00-.061 1.108l5.781 6.455c.29.323.786.35 1.11.06l1.17-1.048a.785.785 0 00.06-1.11l-5.78-6.452z"/></g><defs><clipPath id="clip0_3_1239"><path fill="#fff" d="M0 0h44v44H0z"/></clipPath></defs></svg>