<svg width="45" height="51" fill="none" xmlns="http://www.w3.org/2000/svg"><path d="M.877 12.707V9.006h.19v-1.31h1.336v1.31s27.302.26 32.94 0c1.95 0 7.83 4.567 3.973 11.287 0 0-.29-2.416-1.382 0 0 0-.862 1.732 2.215 6.034 3.032 4.243 4.4 12.834 4.756 15.43H45v1.545H33.501v-1.545h.436c-2.387-2.37-3.911-8.183-4.79-13.42-.329.094-.67.154-1.025.154h-3.644c-2.254 0-5.237-2.732-5.237-5.285 0-1.103.345-2.117.915-2.913H.876v-3.701H0v-3.885h.877zm20.941 10.5c0 1.662 1.196 3.016 2.66 3.016h3.644c.269 0 .528-.047.772-.134a113.855 113.855 0 01-.495-3.674c-.307 1.146-.905 2.348-2.078 2.866a.623.623 0 01-.25.052c-.277 0-.536-.188-.645-.5-.138-.404.038-.855.394-1.014 1.217-.534 1.459-2.618 1.504-3.528h-3.509c-1.146.34-1.997 1.518-1.997 2.915z" fill="#fff" fill-opacity=".15"/></svg>