<svg width="45" height="45" fill="none" xmlns="http://www.w3.org/2000/svg"><g clip-path="url(#clip0_636_64)"><path d="M41.625 37.617l-9.492-9.492.633-.633h1.898a.78.78 0 00.773-.773.78.78 0 00-.773-.774h-1.898l-8.72-8.789L9.915 3.094l.703-.703c.281-.282.281-.774 0-1.125-.281-.282-.773-.282-1.125 0l-.703.703L7.031.21c-.281-.28-.773-.28-1.125 0L3.375 2.812c-.281.282-.281.774 0 1.126L19.758 20.32l-.211.211c-.281.282-.422.703-.422 1.125 0 .422.14.774.422 1.125l5.344 5.344-.914.914c-.422.422-.704 1.055-.704 1.617 0 .633.211 1.196.704 1.617l1.476 1.477a.8.8 0 00.563.21.8.8 0 00.562-.21l.492-.492 5.555 9.773c0 .07.07.14.14.14l1.688 1.688c.14.141.352.211.563.211a.8.8 0 00.562-.21l6.117-6.118c.211-.351.211-.844-.07-1.125zM6.539 1.898L22.43 17.79l-1.476 1.477L5.063 3.375l1.476-1.477zm16.945 16.946l7.875 7.875-.843.843-1.899 1.899-2.039-2.04-5.906-5.905 2.812-2.672zm1.618 12.304a.798.798 0 01-.211-.562c0-.211.07-.422.21-.563l.915-.914 1.476 1.477-.773.773-.703.703-.914-.914zm9.914 11.954l-1.055-1.055-5.695-10.055 2.812-2.812 8.93 8.93-4.992 4.992z" fill="#434A4E"/></g><defs><clipPath id="clip0_636_64"><path fill="#fff" d="M0 0h45v45H0z"/></clipPath></defs></svg>