<svg width="27" height="28" fill="none" xmlns="http://www.w3.org/2000/svg"><g clip-path="url(#clip0_3_1211)"><path d="M10.624 14.84l-3.44 1.987a.403.403 0 01-.468-.05.862.862 0 00-1.15 1.285.29.29 0 01.044.378 1.077 1.077 0 101.957.447.4.4 0 01.196-.405l3.723-2.15" fill="#fff"/><path d="M7.567 18.887a.4.4 0 01.196-.405l3.723-2.15-.862-1.492-.306.177.42.73-3.723 2.15a.4.4 0 00-.195.404 1.077 1.077 0 01-1.289 1.21 1.082 1.082 0 001.457.495c.429-.218.644-.676.579-1.119z" fill="#E5ECEC"/><path d="M12.166 16.935l.057-.033c1.698-.98 3.645-1.417 5.603-1.32a4.021 4.021 0 003.695-5.995c-1.071-1.895-3.563-2.595-5.463-1.532a4.003 4.003 0 00-1.644 1.73c-.856 1.739-2.238 3.164-3.916 4.133a.098.098 0 00-.048.096l.152 1.275c.022.185.12.352.272.46l.234.167a.66.66 0 01.271.453c.046.356.368.61.725.573l.062-.007z" fill="#DE9C2F"/><path d="M14.412 11.362a4.003 4.003 0 011.644-1.73c1.9-1.063 4.392-.364 5.463 1.532.216.381.362.784.444 1.192a4.004 4.004 0 00-.442-2.769c-1.071-1.895-3.563-2.595-5.463-1.532a4.004 4.004 0 00-1.644 1.73c-.856 1.739-2.238 3.164-3.916 4.133a.097.097 0 00-.048.096l.152 1.275a.658.658 0 00.028.127c1.618-.967 2.949-2.362 3.782-4.054z" fill="#B3640D"/><path d="M12.366 13.835l.287.497-.498.287-.287-.497.498-.287z" fill="#984F02"/><path d="M13.15 14.045l.287.498-.497.287-.287-.498.497-.287z" fill="#fff"/><path d="M15.168 11.222l.288.497-.498.287-.287-.497.498-.287zm-.42 1.568l.287.499-.497.287-.288-.498.498-.287zm1.569.421l.288.498-.498.287-.287-.497.497-.288zm1.819.278l.287.497-.498.287-.287-.497.497-.287zm.21-.785l.287.497-.497.287-.288-.497.498-.287zm.028-1.674l.287.497-.497.287-.288-.498.498-.287zm-1.005-1.742l.287.497-.498.288-.287-.498.498-.287zm.784.21l.288.498-.498.287-.287-.498.497-.287zm2.431 1.913l.288.498-.498.287-.287-.498.497-.287zm-.525 1.962l.287.498-.497.287-.288-.498.498-.287zm.266-4.133l.288.497-.498.287-.287-.498.497-.287z" fill="#984F02"/><path d="M12.135 17.227l.121-.013.11-.063c1.62-.935 3.502-1.378 5.446-1.282a4.292 4.292 0 002.362-.573 4.282 4.282 0 002.003-2.598 4.272 4.272 0 00-2.999-5.263 4.27 4.27 0 00-5.022 2.223c-.817 1.66-2.132 3.047-3.802 4.011a.384.384 0 00-.19.379l.072.601-3.232 1.867c-.016.009-.036.005-.051-.008a1.22 1.22 0 00-1.67 1.779 1.431 1.431 0 00.024 1.555 1.436 1.436 0 002.615-1.008.04.04 0 01.02-.041l3.344-1.93c.196.25.513.4.849.364zm2.537-7.315a3.712 3.712 0 011.526-1.606c1.758-.984 4.08-.334 5.073 1.423.487.862.612 1.863.351 2.818a3.711 3.711 0 01-1.735 2.252 3.718 3.718 0 01-2.047.496c-2.054-.101-4.046.368-5.76 1.358l-.005.003a.376.376 0 01-.41-.324.952.952 0 00-.39-.65l-.234-.167a.375.375 0 01-.154-.26l-.137-1.152c1.717-1.018 3.072-2.465 3.922-4.19zm-7.847 9.773a.725.725 0 01-.92-.24.716.716 0 01.002-.804.628.628 0 00.064-.12l.358-.206-.287-.498-.143.083a.643.643 0 00-.09-.103.502.502 0 01.67-.75.762.762 0 00.884.09l1.45-.837.252.435.498-.287-.252-.435 1.023-.59a.951.951 0 00.373.56l.234.167a.37.37 0 01.057.05l-1.93 1.114-.251-.435-.498.287.251.435-.987.57a.755.755 0 00-.371.768.718.718 0 01-.387.746z" fill="#000"/></g><defs><clipPath id="clip0_3_1211"><path fill="#fff" transform="rotate(60 7.597 15.105)" d="M0 0h19.459v19.459H0z"/></clipPath></defs></svg>